<?xml version="1.0" encoding="UTF-8"?><svg xmlns="http://www.w3.org/2000/svg" viewBox="0 0 180 180">
<rect stroke-width="0" fill="#000" y="0" width="180" height="180"/>
<path stroke-width="0" fill="#fff" d="M131.29,57c.29-1.81.8-3.62,1.52-5.43.72-1.81,1.65-3.42,2.77-4.84,1.12-1.41,2.48-2.55,4.08-3.42,1.59-.87,3.41-1.31,5.44-1.31,1.81,0,3.44.22,4.89.65,1.45.43,2.97.98,4.56,1.63,1.01.36,2.01.72,2.99,1.09.98.36,2.01.54,3.1.54,1.23,0,2.21-.38,2.93-1.14.72-.76,1.34-1.69,1.85-2.77h8.48c-.36,2.1-.87,4.06-1.52,5.87-.65,1.81-1.54,3.39-2.66,4.73-1.12,1.34-2.5,2.41-4.13,3.21-1.63.8-3.57,1.2-5.82,1.2-1.59,0-3.1-.23-4.51-.71-1.41-.47-2.74-1-3.97-1.58-1.23-.58-2.41-1.1-3.53-1.58-1.12-.47-2.23-.71-3.31-.71-1.23,0-2.21.51-2.93,1.52-.72,1.02-1.27,2.03-1.63,3.04h-8.59ZM0,11h24.79c6,0,11.71.67,17.11,2.01,5.4,1.34,10.12,3.51,14.14,6.52,4.03,3,7.22,6.9,9.59,11.71,2.37,4.8,3.55,10.63,3.55,17.48,0,6.07-1.15,11.42-3.44,16.05-2.3,4.63-5.39,8.51-9.27,11.65-3.88,3.14-8.37,5.53-13.45,7.15-5.08,1.63-10.42,2.44-16,2.44H0V11ZM17,71h8.68c3.86,0,7.45-.39,10.77-1.18,3.32-.79,6.2-2.09,8.63-3.91,2.43-1.82,4.34-4.21,5.73-7.18,1.39-2.96,2.09-6.59,2.09-10.88,0-3.71-.7-6.95-2.09-9.7-1.39-2.75-3.27-5.02-5.62-6.8-2.36-1.78-5.13-3.12-8.3-4.02-3.18-.89-6.52-1.34-10.02-1.34h-9.86v45ZM90.57,11h13.67l32.63,75h-18.5l-6.51-16h-29.33l-6.29,16h-18.07L90.57,11ZM96.93,32.64l-9.13,23.36h18.37l-9.24-23.36ZM22.39,92H.07v75h16v-54h.2l31.69,54h6.11v-22.88l-31.69-52.12ZM58.16,92h18.19v75h-18.19v-75ZM80.91,92h18.19v75h-18.19v-75ZM98.73,129.47c0-6.02,1.01-11.47,3.03-16.35s4.83-9.04,8.44-12.47c3.61-3.43,7.89-6.07,12.85-7.91,4.95-1.84,10.37-2.76,16.24-2.76s11.29.92,16.24,2.76c4.95,1.84,9.24,4.48,12.85,7.91,3.61,3.43,6.42,7.59,8.44,12.47s3.03,10.33,3.03,16.35-1.01,11.46-3.03,16.35-4.83,9.04-8.44,12.47c-3.61,3.43-7.89,6.07-12.85,7.91-4.95,1.84-10.37,2.76-16.24,2.76s-11.29-.92-16.24-2.76c-4.95-1.84-9.24-4.48-12.85-7.91-3.61-3.43-6.42-7.59-8.44-12.47s-3.03-10.33-3.03-16.35ZM115.93,129.47c0,3.54.55,6.78,1.65,9.71,1.1,2.94,2.67,5.49,4.72,7.64,2.05,2.16,4.51,3.84,7.38,5.04s6.07,1.8,9.61,1.8,6.74-.6,9.61-1.8,5.32-2.88,7.38-5.04c2.05-2.16,3.63-4.7,4.72-7.64,1.1-2.94,1.65-6.17,1.65-9.71s-.55-6.69-1.65-9.66c-1.1-2.97-2.67-5.54-4.72-7.7-2.05-2.16-4.51-3.84-7.38-5.04-2.87-1.2-6.07-1.8-9.61-1.8s-6.74.6-9.61,1.8c-2.87,1.2-5.33,2.88-7.38,5.04-2.05,2.16-3.63,4.72-4.72,7.7-1.1,2.97-1.65,6.19-1.65,9.66Z"/></svg>