<svg width="61" height="259" viewBox="0 0 61 259" fill="none" xmlns="http://www.w3.org/2000/svg">
<path d="M60.424 8.024L57.928 9.624C56.52 6.46666 54.92 3.82133 53.128 1.688L55.368 0.535999C57.3307 3.096 59.016 5.592 60.424 8.024ZM55.944 8.344L53.576 9.88C51.9973 7.14933 50.184 4.696 48.136 2.52L50.376 1.048C53.0213 4.07733 54.8773 6.50933 55.944 8.344ZM35.016 38.872C30.8347 36.1413 26.4187 33.8373 21.768 31.96L25.48 26.328C30.728 28.4613 35.3787 30.7653 39.432 33.24C41.5653 30.0827 43.1867 27.1173 44.296 24.344C45.4053 21.528 45.96 19.3093 45.96 17.688C45.96 16.0667 45.5973 15.0213 44.872 14.552C44.1893 14.04 43.016 13.784 41.352 13.784H26.12C24.4987 13.784 23.432 13.9333 22.92 14.232C22.408 14.488 21.8533 15.1493 21.256 16.216C18.7387 21.2507 13.8747 27.1173 6.664 33.816L0.264 30.68C5.17067 26.072 8.62667 22.424 10.632 19.736C12.68 17.048 14.4507 13.7627 15.944 9.88C16.328 8.81333 16.7333 8.06667 17.16 7.64C17.5867 7.17066 18.3973 6.936 19.592 6.936H44.68C47.9227 6.936 50.312 7.68266 51.848 9.176C53.4267 10.6693 54.216 13.016 54.216 16.216C54.216 19.416 53.256 23.2987 51.336 27.864C49.416 32.4293 46.7067 36.9733 43.208 41.496C39.7093 46.0187 35.8053 49.7307 31.496 52.632C27.2293 55.4907 20.2533 58.3707 10.568 61.272L5.32 55.064C19.0587 51.0107 28.9573 45.6133 35.016 38.872ZM51.528 80.296H4.936V73.128H51.528V80.296ZM56.904 121H1.352V113.512H56.904V121ZM57.16 190.136H0.328V183.352H24.328V145.144H4.872V138.424H52.232V145.144H32.456V183.352H57.16V190.136ZM58.632 240.84C53.5973 246.216 49.032 250.163 44.936 252.68C40.84 255.197 35.656 257.224 29.384 258.76L24.392 250.824C26.696 250.525 28.552 250.141 29.96 249.672V203.528H35.848C37.4693 203.528 38.28 203.848 38.28 204.488C38.28 204.573 38.2587 204.659 38.216 204.744C38.0027 205.171 37.896 206.621 37.896 209.096V247.432C40.4133 246.408 42.8667 245.085 45.256 243.464C47.688 241.8 50.9947 239.069 55.176 235.272L58.632 240.84ZM11.08 206.024C14.536 205.981 16.8187 206.045 17.928 206.216C19.08 206.344 19.656 206.557 19.656 206.856C19.656 206.941 19.6347 207.048 19.592 207.176C19.2933 207.944 19.144 209.459 19.144 211.72C19.016 221.832 18.0773 230.408 16.328 237.448C14.5787 244.445 11.9333 250.931 8.392 256.904L1.48 251.4C6.00267 244.573 8.79733 238.216 9.864 232.328C10.9307 226.397 11.464 219.699 11.464 212.232C11.464 209.757 11.336 207.688 11.08 206.024Z" fill="#F50000"/>
</svg>
