<svg width="251" height="62" viewBox="0 0 251 62" fill="none" xmlns="http://www.w3.org/2000/svg">
<path d="M60.424 8.024L57.928 9.624C56.52 6.46666 54.92 3.82133 53.128 1.688L55.368 0.535999C57.3307 3.096 59.016 5.592 60.424 8.024ZM55.944 8.344L53.576 9.88C51.9973 7.14933 50.184 4.696 48.136 2.52L50.376 1.048C53.0213 4.07733 54.8773 6.50933 55.944 8.344ZM35.016 38.872C30.8347 36.1413 26.4187 33.8373 21.768 31.96L25.48 26.328C30.728 28.4613 35.3787 30.7653 39.432 33.24C41.5653 30.0827 43.1867 27.1173 44.296 24.344C45.4053 21.528 45.96 19.3093 45.96 17.688C45.96 16.0667 45.5973 15.0213 44.872 14.552C44.1893 14.04 43.016 13.784 41.352 13.784H26.12C24.4987 13.784 23.432 13.9333 22.92 14.232C22.408 14.488 21.8533 15.1493 21.256 16.216C18.7387 21.2507 13.8747 27.1173 6.664 33.816L0.264 30.68C5.17067 26.072 8.62667 22.424 10.632 19.736C12.68 17.048 14.4507 13.7627 15.944 9.88C16.328 8.81333 16.7333 8.06667 17.16 7.64C17.5867 7.17066 18.3973 6.936 19.592 6.936H44.68C47.9227 6.936 50.312 7.68266 51.848 9.176C53.4267 10.6693 54.216 13.016 54.216 16.216C54.216 19.416 53.256 23.2987 51.336 27.864C49.416 32.4293 46.7067 36.9733 43.208 41.496C39.7093 46.0187 35.8053 49.7307 31.496 52.632C27.2293 55.4907 20.2533 58.3707 10.568 61.272L5.32 55.064C19.0587 51.0107 28.9573 45.6133 35.016 38.872ZM115.528 14.296H68.936V7.128H115.528V14.296ZM120.904 55H65.352V47.512H120.904V55ZM185.16 58.136H128.328V51.352H152.328V13.144H132.872V6.424H180.232V13.144H160.456V51.352H185.16V58.136ZM250.632 42.84C245.597 48.216 241.032 52.1627 236.936 54.68C232.84 57.1973 227.656 59.224 221.384 60.76L216.392 52.824C218.696 52.5253 220.552 52.1413 221.96 51.672V5.528H227.848C229.469 5.528 230.28 5.848 230.28 6.488C230.28 6.57333 230.259 6.65866 230.216 6.744C230.003 7.17067 229.896 8.62133 229.896 11.096V49.432C232.413 48.408 234.867 47.0853 237.256 45.464C239.688 43.8 242.995 41.0693 247.176 37.272L250.632 42.84ZM203.08 8.024C206.536 7.98133 208.819 8.04533 209.928 8.216C211.08 8.344 211.656 8.55733 211.656 8.856C211.656 8.94133 211.635 9.048 211.592 9.176C211.293 9.944 211.144 11.4587 211.144 13.72C211.016 23.832 210.077 32.408 208.328 39.448C206.579 46.4453 203.933 52.9307 200.392 58.904L193.48 53.4C198.003 46.5733 200.797 40.216 201.864 34.328C202.931 28.3973 203.464 21.6987 203.464 14.232C203.464 11.7573 203.336 9.688 203.08 8.024Z" fill="#F50000"/>
</svg>
