<svg width="830" height="185" viewBox="0 0 830 185" fill="none" xmlns="http://www.w3.org/2000/svg">
<path d="M0.200001 4.91999H37.64C62.92 4.91999 81.32 6.83999 92.84 10.68C104.36 14.36 114.28 20.2 122.6 28.2C131.08 36.04 137.56 45.64 142.04 57C146.52 68.36 148.76 81.48 148.76 96.36C148.76 111.24 145.4 125.32 138.68 138.6C132.12 151.72 122.68 162.04 110.36 169.56C98.2 176.92 80.36 180.6 56.84 180.6H0.200001V4.91999ZM20.12 160.92H38.36C58.68 160.92 73.48 159.88 82.76 157.8C92.04 155.72 100.12 151.72 107 145.8C113.88 139.88 119.08 132.68 122.6 124.2C126.28 115.56 128.12 105.64 128.12 94.44C128.12 83.24 125.96 72.92 121.64 63.48C117.48 53.88 111.48 46.12 103.64 40.2C95.8 34.12 86.6 30.12 76.04 28.2C65.48 26.12 50.36 25.08 30.68 25.08H20.12V160.92ZM281.274 25.32H199.674V75.72H280.554V95.88H199.674V160.2H280.554V180.6H179.034V4.91999H281.274V25.32ZM375.146 43.56C368.746 34.92 363.306 29.16 358.826 26.28C354.346 23.24 349.066 21.72 342.986 21.72C337.066 21.72 332.026 23.64 327.866 27.48C323.866 31.32 321.866 36.28 321.866 42.36C321.866 48.28 323.786 53.48 327.626 57.96C331.466 62.44 340.266 69.8 354.026 80.04C367.946 90.12 378.106 99.64 384.506 108.6C390.906 117.56 394.106 127 394.106 136.92C394.106 149.88 389.066 161.16 378.986 170.76C369.066 180.2 357.466 184.92 344.186 184.92C320.826 184.92 302.506 171.88 289.226 145.8L306.746 135.72C317.146 155.08 328.826 164.76 341.786 164.76C350.106 164.76 357.226 162.12 363.146 156.84C369.066 151.56 372.026 145.4 372.026 138.36C372.026 131.32 369.546 124.68 364.586 118.44C359.626 112.04 351.066 104.28 338.906 95.16C326.746 85.88 318.346 78.84 313.706 74.04C309.226 69.24 305.946 64.12 303.866 58.68C301.786 53.24 300.746 47.8 300.746 42.36C300.746 30.68 304.746 20.84 312.746 12.84C320.906 4.67999 331.386 0.599985 344.186 0.599985C354.106 0.599985 362.746 3.15999 370.106 8.27999C377.466 13.24 384.666 20.68 391.706 30.6L375.146 43.56ZM445.237 180.6H424.597V4.91999H445.237V180.6ZM661.618 94.68C661.138 123.16 652.818 145.32 636.658 161.16C620.658 177 599.538 184.92 573.298 184.92C543.218 184.92 519.218 175.72 501.298 157.32C483.378 138.76 474.418 117.08 474.418 92.28C474.418 67.48 483.378 46.04 501.298 27.96C519.218 9.71999 542.338 0.599985 570.658 0.599985C586.018 0.599985 600.258 3.47999 613.378 9.23999C626.658 14.84 639.618 23.48 652.258 35.16L636.418 50.28C626.658 40.84 616.098 33.64 604.738 28.68C593.378 23.56 581.698 21 569.698 21C557.698 21 545.778 24.2 533.938 30.6C522.098 37 512.818 45.64 506.098 56.52C499.378 67.4 496.018 79.16 496.018 91.8C496.018 111.48 503.378 128.68 518.098 143.4C532.978 157.96 551.538 165.24 573.778 165.24C590.258 165.24 604.498 160.76 616.498 151.8C628.498 142.68 635.858 130.28 638.578 114.6H583.858V94.68H661.618ZM829.394 180.6H823.154L711.794 53.16V180.6H690.674V4.91999H696.914L808.994 134.04V4.91999H829.394V180.6Z" fill="black"/>
</svg>
