<?xml version="1.0" encoding="UTF-8"?><svg id="Layer_2" xmlns="http://www.w3.org/2000/svg" viewBox="0 0 60.16 258.22"><defs><style>.cls-1{fill:#f50000;stroke-width:0px;}</style></defs><g id="Layer_1-2"><path class="cls-1" d="m60.16,7.49l-2.5,1.6c-1.41-3.16-3.01-5.8-4.8-7.94l2.24-1.15c1.96,2.56,3.65,5.06,5.06,7.49Z"/><path class="cls-1" d="m55.68,7.81l-2.37,1.54c-1.58-2.73-3.39-5.18-5.44-7.36l2.24-1.47c2.65,3.03,4.5,5.46,5.57,7.3Z"/><path class="cls-1" d="m34.75,38.34c-4.18-2.73-8.6-5.03-13.25-6.91l3.71-5.63c5.25,2.13,9.9,4.44,13.95,6.91,2.13-3.16,3.75-6.12,4.86-8.9,1.11-2.82,1.66-5.03,1.66-6.66s-.36-2.67-1.09-3.14c-.68-.51-1.86-.77-3.52-.77h-15.23c-1.62,0-2.69.15-3.2.45-.51.26-1.07.92-1.66,1.98-2.52,5.03-7.38,10.9-14.59,17.6l-6.4-3.14c4.91-4.61,8.36-8.26,10.37-10.94,2.05-2.69,3.82-5.97,5.31-9.86.38-1.07.79-1.81,1.22-2.24.43-.47,1.24-.7,2.43-.7h25.09c3.24,0,5.63.75,7.17,2.24,1.58,1.49,2.37,3.84,2.37,7.04s-.96,7.08-2.88,11.65c-1.92,4.57-4.63,9.11-8.13,13.63-3.5,4.52-7.4,8.23-11.71,11.14-4.27,2.86-11.24,5.74-20.93,8.64l-5.25-6.21c13.74-4.05,23.64-9.45,29.7-16.19Z"/><rect class="cls-1" x="4.67" y="72.59" width="46.59" height="7.17"/><rect class="cls-1" x="1.09" y="112.98" width="55.55" height="7.49"/><polygon class="cls-1" points="56.9 189.6 .06 189.6 .06 182.82 24.06 182.82 24.06 144.61 4.61 144.61 4.61 137.89 51.97 137.89 51.97 144.61 32.19 144.61 32.19 182.82 56.9 182.82 56.9 189.6"/><path class="cls-1" d="m58.37,240.3c-5.03,5.38-9.6,9.32-13.7,11.84-4.1,2.52-9.28,4.54-15.55,6.08l-4.99-7.94c2.3-.3,4.16-.68,5.57-1.15v-46.14h5.89c1.62,0,2.43.32,2.43.96,0,.08-.02.17-.06.26-.21.43-.32,1.88-.32,4.35v38.34c2.52-1.02,4.97-2.35,7.36-3.97,2.43-1.66,5.74-4.4,9.92-8.19l3.46,5.57Z"/><path class="cls-1" d="m10.82,205.49c3.46-.04,5.74.02,6.85.19,1.15.13,1.73.34,1.73.64,0,.08-.02.19-.06.32-.3.77-.45,2.28-.45,4.54-.13,10.11-1.07,18.69-2.82,25.73-1.75,7-4.39,13.48-7.94,19.46l-6.91-5.5c4.52-6.83,7.32-13.18,8.38-19.07,1.07-5.93,1.6-12.63,1.6-20.1,0-2.47-.13-4.54-.38-6.21Z"/></g></svg>